<?xml version="1.0" standalone="no"?>
<!DOCTYPE svg PUBLIC "-//W3C//DTD SVG 20010904//EN"
 "http://www.w3.org/TR/2001/REC-SVG-20010904/DTD/svg10.dtd">
<svg version="1.0" xmlns="http://www.w3.org/2000/svg"
 width="208.000000pt" height="208.000000pt" viewBox="0 0 208.000000 208.000000"
 preserveAspectRatio="xMidYMid meet">
<metadata>
Created by potrace 1.14, written by Peter Selinger 2001-2017
</metadata>
<g transform="translate(0.000000,208.000000) scale(0.100000,-0.100000)"
fill="#000000" stroke="none">
<path d="M909 2026 c-2 -2 -23 -6 -47 -10 -24 -3 -62 -11 -85 -17 -42 -10
-247 -98 -257 -108 -3 -4 -31 -23 -63 -44 -56 -36 -217 -190 -217 -206 0 -4
-11 -21 -25 -37 -35 -40 -109 -195 -134 -279 -30 -103 -39 -174 -36 -304 9
-440 310 -817 741 -927 526 -134 1059 180 1206 711 23 81 33 309 17 390 -5 28
-12 62 -14 78 -7 35 -40 128 -72 197 -83 181 -240 345 -430 447 -43 23 -136
62 -163 68 -8 2 -42 11 -75 20 -54 16 -334 33 -346 21z"/>
</g>
</svg>
